<svg width="39" height="39" viewBox="0 0 39 39" fill="none" xmlns="http://www.w3.org/2000/svg">
<path d="M14.2153 10.664L4.26575 19.5L14.2092 28.3359C14.3293 28.4422 14.4272 28.571 14.4974 28.7151C14.5677 28.8591 14.6089 29.0157 14.6186 29.1757C14.6284 29.3356 14.6065 29.496 14.5543 29.6476C14.5021 29.7991 14.4206 29.9389 14.3143 30.0589C14.2081 30.179 14.0793 30.2769 13.9352 30.3471C13.7911 30.4174 13.6346 30.4586 13.4746 30.4683C13.3146 30.4781 13.1543 30.4562 13.0027 30.404C12.8512 30.3518 12.7114 30.2703 12.5913 30.164L1.62258 20.414C1.4929 20.2997 1.38904 20.159 1.3179 20.0014C1.24675 19.8438 1.20996 19.6729 1.20996 19.5C1.20996 19.3271 1.24675 19.1561 1.3179 18.9985C1.38904 18.8409 1.4929 18.7003 1.62258 18.5859L12.5913 8.83592C12.7114 8.72929 12.8512 8.64734 13.0029 8.59476C13.1546 8.54218 13.3152 8.52 13.4755 8.52948C13.6358 8.53895 13.7926 8.57991 13.9371 8.65C14.0815 8.72009 14.2108 8.81795 14.3174 8.93799C14.424 9.05802 14.506 9.19789 14.5585 9.34959C14.6111 9.5013 14.6333 9.66188 14.6238 9.82216C14.6144 9.98243 14.5734 10.1393 14.5033 10.2837C14.4332 10.4282 14.3354 10.5574 14.2153 10.664ZM37.3716 18.5859L26.4028 8.83592C26.1604 8.62137 25.8427 8.51192 25.5195 8.53163C25.1964 8.55134 24.8944 8.69861 24.6798 8.94104C24.4653 9.18346 24.3558 9.50118 24.3755 9.82431C24.3952 10.1474 24.5425 10.4495 24.7849 10.664L34.7345 19.5L24.791 28.3359C24.671 28.4422 24.573 28.571 24.5028 28.7151C24.4326 28.8591 24.3914 29.0157 24.3816 29.1757C24.3719 29.3356 24.3937 29.496 24.4459 29.6476C24.4981 29.7991 24.5797 29.9389 24.6859 30.0589C24.7921 30.179 24.921 30.2769 25.0651 30.3471C25.2091 30.4174 25.3656 30.4586 25.5256 30.4683C25.6856 30.4781 25.846 30.4562 25.9975 30.404C26.1491 30.3518 26.2889 30.2703 26.4089 30.164L37.3777 20.414C37.5073 20.2997 37.6112 20.159 37.6824 20.0014C37.7535 19.8438 37.7903 19.6729 37.7903 19.5C37.7903 19.3271 37.7535 19.1561 37.6824 18.9985C37.6112 18.8409 37.5073 18.7003 37.3777 18.5859H37.3716Z" fill="#F2E9FF"/>
</svg>
