<svg width="46" height="40" viewBox="0 0 46 40" fill="none" xmlns="http://www.w3.org/2000/svg">
<path d="M21.5997 0.100569C21.2148 0.10132 20.83 0.110134 20.4454 0.127006C19.6191 0.273913 19.2375 0.635694 19.0303 1.04979C18.8021 1.50635 18.811 2.12069 19.0655 2.66698C19.3202 3.21354 19.7874 3.66035 20.4396 3.82722C21.0919 3.9941 21.9898 3.90785 23.1701 3.15344L24.1135 4.63001C22.6305 5.57782 21.1956 5.82785 20.006 5.52344C18.8165 5.21904 17.9338 4.38691 17.4777 3.40816C17.048 2.48604 16.9691 1.40416 17.3812 0.443413C13.3577 1.09404 9.71459 2.63698 6.91625 4.8086C5.99656 5.8106 5.90656 6.97516 6.30968 7.77054C6.7625 8.6636 7.82937 9.31554 9.96312 8.64054L10.4934 10.3105C7.814 11.158 5.60553 10.2554 4.74837 8.56441C4.53931 8.15219 4.41162 7.70604 4.36146 7.24601C3.91015 7.78151 3.50271 8.33894 3.14271 8.91888L3.15453 8.92451C2.34696 10.7635 2.32859 12.0373 2.65053 12.865C2.97265 13.6928 3.64756 14.2188 4.68678 14.5086C6.76503 15.088 10.1304 14.3889 12.5002 12.619C13.5146 11.8615 14.4761 10.0243 14.5599 8.59948C14.6016 7.88698 14.4507 7.3241 14.1525 6.96466C13.8544 6.60523 13.377 6.33626 12.3888 6.34648L12.3713 4.59466C13.7294 4.5806 14.8322 5.04035 15.5002 5.84566C16.1681 6.65097 16.3683 7.68804 16.3088 8.70204C16.1897 10.7301 15.128 12.8432 13.549 14.0224C10.7481 16.1143 7.04871 16.9854 4.21803 16.1962C2.90665 15.8306 1.74584 15.035 1.14771 13.8028C0.252777 18.0634 1.553 22.0209 4.02753 24.7597C4.35096 25.1179 4.69521 25.4563 5.05596 25.7704C4.79778 25.0309 4.67946 24.261 4.70721 23.5116C4.7569 22.1687 5.2774 20.8542 6.32159 19.9463C7.1779 19.2014 8.36084 18.7716 9.77562 18.7744C9.86993 18.7744 9.96631 18.7761 10.0627 18.7801C10.283 18.7894 10.5092 18.8086 10.7396 18.8388L10.5108 20.5761C9.04943 20.3841 8.10096 20.7188 7.46993 21.2675C6.839 21.8164 6.4909 22.6376 6.45621 23.5761C6.38684 25.4534 7.58778 27.6454 10.1772 28.2813L10.1742 28.2989C12.7234 28.7854 15.5682 28.3338 18.4242 26.5908C18.4258 26.5896 18.4282 26.5892 18.43 26.5879C19.0243 26.1708 19.3445 25.7622 19.5023 25.4102C19.6884 24.9947 19.6844 24.6328 19.552 24.2441C19.2872 23.4669 18.3388 22.668 17.469 22.4453C16.0626 22.0853 15.1692 22.5799 14.7503 23.1691C14.3314 23.7578 14.3059 24.3363 14.9524 24.8388L13.8771 26.2216C12.5471 25.1872 12.4622 23.3634 13.3235 22.1524C13.9696 21.2441 15.1033 20.6218 16.4701 20.582C16.5277 20.58 16.5854 20.579 16.643 20.5792C17.0467 20.582 17.4671 20.6375 17.9027 20.7489C19.3563 21.1211 20.7002 22.1811 21.2102 23.6786C21.3463 24.08 21.4059 24.5034 21.3861 24.9268C22.9526 24.1264 24.6047 23.4155 26.2875 22.8817C29.1147 21.5898 30.3403 19.325 30.2925 17.418C30.2442 15.4968 29.0562 13.8798 26.3198 13.6093L26.4926 11.8661C29.9301 12.206 31.9735 14.6644 32.0415 17.3739C32.0811 18.9527 31.5021 20.5954 30.3364 21.9939C31.8431 21.8252 33.3405 21.8538 34.7923 22.1464C34.4968 21.5397 34.3536 20.8829 34.3736 20.2304C34.437 18.1645 36.1942 16.2373 38.9556 16.2079C39.1442 16.2061 39.3329 16.213 39.5209 16.2284L39.3803 17.9745C37.0434 17.7872 36.1646 19.0138 36.1255 20.286C36.0868 21.5441 36.9266 22.9524 39.3336 23.1394C41.9867 23.1628 43.8887 21.7239 44.8208 19.5857C46.0686 16.7229 45.4767 12.4309 41.5541 8.50554C41.4799 8.43119 41.4062 8.35619 41.3315 8.28288C41.2904 8.63249 41.2007 8.97466 41.0651 9.29951C40.3854 10.9298 38.7932 12.0303 37.1393 12.3377C34.8579 12.7616 32.9871 11.8364 32.1236 10.4246C31.2602 9.01301 31.4869 7.01679 33.0405 5.96585L34.0221 7.41897C33.1865 7.9841 33.1521 8.74929 33.6177 9.51054C34.0834 10.272 35.1337 10.9314 36.8199 10.6181C37.8798 10.421 39.0601 9.55591 39.4477 8.62591C39.6417 8.16091 39.6792 7.70135 39.4859 7.1756C39.3289 6.74857 38.9996 6.26023 38.3872 5.74591L38.3696 5.73138C35.8088 3.80135 33.088 2.41329 30.3306 1.49791C30.3323 1.50091 30.3348 1.50354 30.3365 1.50663C30.9631 2.65226 31.0096 3.95182 30.6236 5.10138C29.8518 7.4006 27.4296 9.21213 24.4332 9.11201C23.7818 9.09044 23.1619 9.40451 22.6345 10.0174C22.1069 10.6302 21.7218 11.5279 21.6325 12.4842C21.4539 14.3967 22.2815 16.5048 25.5085 17.5467L24.9688 19.2138C21.1173 17.9703 19.641 14.9438 19.8857 12.3231C20.0082 11.013 20.5144 9.79544 21.3067 8.87501C22.099 7.95457 23.2262 7.31847 24.4914 7.36038C26.7451 7.43557 28.4591 6.04001 28.962 4.54198C29.2135 3.7931 29.1809 3.04788 28.798 2.34776C28.426 1.66788 27.6889 0.9956 26.3693 0.505007C24.7943 0.231476 23.1983 0.0961479 21.5997 0.100569ZM31.0888 23.7198C27.1593 24.0394 22.8983 25.9135 19.3438 28.0849C14.0957 31.291 8.5729 30.5912 4.65434 27.6837C6.19596 33.2003 11.6586 34.3201 17.3575 32.9248C17.9277 32.7106 18.4881 32.3119 18.9659 31.797C19.6275 31.0838 20.1069 30.1592 20.2578 29.3946L21.9776 29.7345C21.7483 30.8954 21.1265 32.0469 20.252 32.9895C19.4129 33.8937 18.3198 34.616 17.0557 34.8058C16.4214 36.2186 15.8994 37.5883 15.6875 38.547C15.3547 40.0526 17.0193 40.6306 17.7646 39.1123C19.5479 35.4801 22.0649 32.247 25.2089 29.4591C27.6524 27.851 29.747 25.8682 31.0889 23.7198H31.0888Z" fill="#F2E9FF"/>
</svg>
