<svg width="29" height="29" viewBox="0 0 29 29" fill="none" xmlns="http://www.w3.org/2000/svg">
<path d="M29 0.252466L28.3176 5.24907C26.5435 5.11217 25.2471 5.47722 24.4282 6.3442C23.6094 7.21119 23.109 8.37478 22.9271 9.83497C22.7451 11.2952 22.6996 12.8694 22.7906 14.5578H29V29H17.3318V11.8199C17.3318 7.62187 18.378 4.47333 20.4706 2.37431C22.6086 0.275283 25.4518 -0.431998 29 0.252466ZM11.6682 0.252466L10.9859 5.24907C9.21176 5.11217 7.91529 5.47722 7.09647 6.3442C6.27765 7.21119 5.77725 8.37478 5.59529 9.83497C5.41333 11.2952 5.36784 12.8694 5.45882 14.5578H11.6682V29H0V11.8199C0 7.62187 1.04627 4.47333 3.13882 2.37431C5.27686 0.275283 8.12 -0.431998 11.6682 0.252466Z" fill="#2563EB"/>
</svg>
