<svg width="175" height="38" viewBox="0 0 175 38" fill="none" xmlns="http://www.w3.org/2000/svg">
<g opacity="0.8" filter="url(#filter0_b_51_23)">
<rect width="175" height="38" rx="19" fill="#2563EB"/>
<rect x="0.5" y="0.5" width="174" height="37" rx="18.5" stroke="url(#paint0_radial_51_23)"/>
<path d="M39.5 16.25H41.5C42.6046 16.25 43.5 17.1454 43.5 18.25V26.25C43.5 26.7305 42.8883 26.9344 42.6 26.55L40.5 23.75H34.5C33.3954 23.75 32.5 22.8546 32.5 21.75V20.25M30.5 17.75H34.5C35.6046 17.75 36.5 16.8546 36.5 15.75V12.25C36.5 11.1454 35.6046 10.25 34.5 10.25H28.5C27.3954 10.25 26.5 11.1454 26.5 12.25V20.5429C26.5 20.9883 27.0386 21.2114 27.3536 20.8964L30.5 17.75Z" stroke="white" stroke-linecap="round"/>
<path d="M61.575 20.193V18.407H66.8V18.502C66.8 20.668 66.154 22.435 64.919 23.632C63.608 24.905 62.05 25.247 60.606 25.247C58.763 25.247 57.452 24.715 56.293 23.518C55.058 22.245 54.412 20.554 54.412 18.73C54.412 16.754 55.21 15.044 56.255 13.999C57.338 12.897 59.067 12.099 61.024 12.099C62.164 12.099 63.342 12.346 64.33 12.897C65.375 13.486 66.021 14.227 66.382 14.797L64.843 15.88C64.463 15.348 63.893 14.778 63.285 14.436C62.582 14.018 61.822 13.885 61.043 13.885C59.39 13.885 58.326 14.569 57.699 15.196C56.863 16.032 56.35 17.381 56.35 18.749C56.35 20.022 56.825 21.295 57.661 22.188C58.535 23.119 59.618 23.461 60.834 23.461C61.936 23.461 62.848 23.138 63.665 22.34C64.368 21.656 64.653 20.915 64.729 20.193H61.575ZM74.4959 22.302L76.0539 23.176C75.7119 23.784 75.2179 24.316 74.7049 24.639C74.0589 25.057 73.2039 25.247 72.3489 25.247C71.2849 25.247 70.4109 24.981 69.6509 24.221C68.8909 23.461 68.4729 22.359 68.4729 21.162C68.4729 19.927 68.9099 18.73 69.7459 17.875C70.4109 17.21 71.2849 16.792 72.4249 16.792C73.6979 16.792 74.5149 17.343 74.9899 17.837C76.0159 18.901 76.1109 20.383 76.1109 21.219V21.447H70.3729C70.4109 22.017 70.6579 22.663 71.0569 23.062C71.4939 23.499 72.0259 23.575 72.4819 23.575C72.9949 23.575 73.3749 23.461 73.7549 23.176C74.0779 22.929 74.3249 22.606 74.4959 22.302ZM70.5059 19.927H74.2109C74.1349 19.49 73.9259 19.11 73.6409 18.844C73.3939 18.616 72.9949 18.388 72.3869 18.388C71.7409 18.388 71.3229 18.654 71.0759 18.901C70.8099 19.148 70.6009 19.528 70.5059 19.927ZM81.4009 18.711H79.9759V25H78.1139V18.711H77.3349V17.001H78.1139V14.075H79.9759V17.001H81.4009V18.711ZM87.093 17.001H88.955V25H87.093V17.001ZM86.827 13.695C86.827 13.011 87.34 12.498 88.024 12.498C88.708 12.498 89.221 13.011 89.221 13.695C89.221 14.379 88.708 14.892 88.024 14.892C87.34 14.892 86.827 14.379 86.827 13.695ZM91.286 25V17.001H93.148V17.742C93.946 16.849 94.858 16.792 95.314 16.792C96.796 16.792 97.423 17.533 97.67 17.875C97.974 18.312 98.164 18.863 98.164 20.098V25H96.302V20.554C96.302 18.521 95.542 18.464 94.839 18.464C94.003 18.464 93.148 18.578 93.148 21.162V25H91.286ZM111.725 14.151H108.818V25H106.88V14.151H103.973V12.327H111.725V14.151ZM116.184 16.792C118.597 16.792 120.459 18.54 120.459 21.01C120.459 23.461 118.597 25.247 116.184 25.247C113.771 25.247 111.909 23.461 111.909 21.01C111.909 18.54 113.771 16.792 116.184 16.792ZM116.184 23.575C117.647 23.575 118.559 22.568 118.559 21.029C118.559 19.205 117.362 18.464 116.184 18.464C115.006 18.464 113.809 19.205 113.809 21.029C113.809 22.568 114.721 23.575 116.184 23.575ZM122.403 17.001H124.265V21.58C124.265 22.055 124.284 22.606 124.607 23.024C124.854 23.347 125.291 23.575 125.823 23.575C126.355 23.575 126.792 23.347 127.039 23.024C127.362 22.606 127.381 22.055 127.381 21.58V17.001H129.243V21.637C129.243 22.663 129.129 23.518 128.388 24.259C127.666 24.981 126.678 25.247 125.785 25.247C124.968 25.247 123.98 25 123.258 24.259C122.517 23.518 122.403 22.663 122.403 21.637V17.001ZM137.8 17.362V19.452C136.945 18.616 136.109 18.464 135.539 18.464C134.665 18.464 134.114 18.825 133.772 19.167C133.43 19.509 133.088 20.117 133.088 21.01C133.088 21.941 133.449 22.568 133.81 22.929C134.228 23.328 134.817 23.575 135.501 23.575C136.261 23.575 137.154 23.271 137.8 22.549V24.62C137.344 24.905 136.603 25.247 135.368 25.247C134.038 25.247 133.088 24.867 132.328 24.069C131.758 23.48 131.188 22.53 131.188 21.067C131.188 19.566 131.815 18.559 132.404 17.97C133.031 17.343 134.038 16.792 135.615 16.792C136.223 16.792 136.945 16.887 137.8 17.362ZM139.584 25V11.149H141.446V17.685C142.244 16.868 143.118 16.792 143.593 16.792C145.056 16.792 145.721 17.552 145.949 17.875C146.443 18.597 146.462 19.528 146.462 20.098V25H144.6V20.269C144.6 19.794 144.6 19.281 144.239 18.882C144.03 18.654 143.669 18.464 143.194 18.464C142.567 18.464 142.073 18.768 141.826 19.129C141.56 19.509 141.446 20.117 141.446 21.143V25H139.584Z" fill="white"/>
</g>
<defs>
<filter id="filter0_b_51_23" x="-100" y="-100" width="375" height="238" filterUnits="userSpaceOnUse" color-interpolation-filters="sRGB">
<feFlood flood-opacity="0" result="BackgroundImageFix"/>
<feGaussianBlur in="BackgroundImageFix" stdDeviation="50"/>
<feComposite in2="SourceAlpha" operator="in" result="effect1_backgroundBlur_51_23"/>
<feBlend mode="normal" in="SourceGraphic" in2="effect1_backgroundBlur_51_23" result="shape"/>
</filter>
<radialGradient id="paint0_radial_51_23" cx="0" cy="0" r="1" gradientUnits="userSpaceOnUse" gradientTransform="translate(87.5 18.4242) rotate(0.377006) scale(87.5019 19.0002)">
<stop stop-color="#083AA6"/>
<stop offset="1" stop-color="#0743C6"/>
</radialGradient>
</defs>
</svg>
