<svg width="47" height="47" viewBox="0 0 47 47" fill="none" xmlns="http://www.w3.org/2000/svg">
<path d="M23.4999 42.6592C24.0119 42.6592 24.4836 42.6005 25.0148 42.561L26.1563 44.7247C26.372 45.1578 26.805 45.3936 27.3355 45.3147C27.8273 45.2165 28.1815 44.8624 28.2402 44.3311L28.5944 41.9509C29.5587 41.6957 30.5222 41.3214 31.4664 40.9085L33.2373 42.5023C33.6108 42.8565 34.0825 42.9345 34.5743 42.6592C35.0074 42.4234 35.1845 41.9509 35.0863 41.4398L34.5944 39.0797C35.4282 38.4977 36.2112 37.8464 36.9352 37.1325L39.1383 38.0558C39.6302 38.253 40.0825 38.1548 40.456 37.7024C40.7909 37.3482 40.8295 36.8371 40.5542 36.404L39.276 34.3587C39.866 33.532 40.3385 32.6466 40.7909 31.7024L43.1912 31.8207C43.7015 31.84 44.1346 31.5647 44.3117 31.0737C44.4686 30.5811 44.3117 30.1094 43.8988 29.7947L42.0297 28.2999C42.2857 27.3557 42.4829 26.3326 42.5609 25.2701L44.843 24.5626C45.3348 24.3855 45.6487 24.0111 45.6487 23.4799C45.6487 22.9688 45.3348 22.5953 44.843 22.4182L42.5601 21.6905C42.4821 20.628 42.2857 19.6443 42.0297 18.6808L43.8979 17.1659C44.3117 16.8713 44.4686 16.419 44.3117 15.9271C44.1346 15.4353 43.7015 15.1592 43.1904 15.1793L40.7901 15.2775C40.3385 14.3333 39.8668 13.4479 39.276 12.622L40.5551 10.5767C40.8295 10.1629 40.7901 9.65181 40.456 9.29763C40.0825 8.84525 39.6302 8.72691 39.1383 8.94345L36.9352 9.8289C36.2003 9.13275 35.4179 8.48858 34.5936 7.90106L35.0863 5.56029C35.1845 5.02902 35.0074 4.55734 34.5743 4.32066C34.0825 4.06552 33.6108 4.10497 33.2373 4.49775L31.4664 6.05211C30.5331 5.64699 29.5736 5.30519 28.5944 5.02902L28.2402 2.64881C28.1815 2.13684 27.8273 1.7642 27.3355 1.68531C26.8042 1.60641 26.372 1.82295 26.1554 2.25602L25.014 4.4197C24.4836 4.38025 24.0111 4.34081 23.4999 4.34081C22.9687 4.34081 22.497 4.38025 21.9456 4.4197L20.8251 2.25602C20.6086 1.82295 20.1755 1.60641 19.6249 1.68531C19.1331 1.7642 18.7983 2.13768 18.7202 2.64881L18.3853 5.00972C17.4064 5.29451 16.447 5.64271 15.5133 6.05211L13.7432 4.49775C13.3496 4.10497 12.8779 4.06552 12.4054 4.3215C11.9732 4.5565 11.7961 5.02902 11.8934 5.56029L12.3861 7.9019C11.5516 8.48369 10.7624 9.12787 10.0252 9.8289L7.84222 8.94345C7.35039 8.72691 6.87788 8.84525 6.5044 9.29763C6.35165 9.46735 6.25922 9.68277 6.24146 9.91041C6.2237 10.1381 6.28161 10.3652 6.4062 10.5566L7.70457 12.6229C7.11456 13.4487 6.64204 14.335 6.18966 15.2784L3.77 15.1802C3.25804 15.1609 2.82581 15.4362 2.66886 15.9271C2.51107 16.4198 2.64872 16.8722 3.06165 17.1668L4.95004 18.6817C4.69489 19.6452 4.47836 20.6288 4.41961 21.6914L2.13675 22.419C1.62647 22.576 1.35034 22.9503 1.35034 23.4816C1.35034 24.012 1.62647 24.3863 2.13759 24.5634L4.41961 25.2911C4.47836 26.3335 4.6949 27.3557 4.95088 28.3007L3.06248 29.7947C2.64872 30.1094 2.51107 30.5819 2.66802 31.0729C2.82581 31.5647 3.25888 31.84 3.77 31.8207L6.18966 31.7032C6.64288 32.6466 7.11456 33.5328 7.68443 34.3579L6.4255 36.404C6.13091 36.8371 6.17036 37.3482 6.5044 37.7024C6.87788 38.1548 7.35039 38.253 7.84222 38.0566L10.0252 37.1317C10.7537 37.8594 11.5603 38.5081 12.3861 39.0788L11.8943 41.4398C11.7961 41.9517 11.9732 42.4234 12.4063 42.6592C12.8972 42.9345 13.3698 42.8556 13.7432 42.5023L15.494 40.9085C16.4382 41.3214 17.4017 41.6957 18.3853 41.9509L18.7202 44.3311C18.7983 44.8624 19.1331 45.2165 19.6249 45.3147C20.1755 45.3936 20.6086 45.1578 20.8251 44.7247L21.9456 42.561C22.4768 42.6005 22.9695 42.6592 23.4999 42.6592ZM28.4374 22.2411C27.5126 19.7627 25.7031 18.4056 23.4412 18.4056C23.1063 18.4056 22.7135 18.445 22.0841 18.5818L16.4382 8.94345C18.5431 7.90106 20.9426 7.33034 23.4999 7.33034C32.0766 7.33034 38.8035 13.8415 39.4136 22.2411H28.4374ZM7.52748 23.5C7.52748 18.0312 10.1041 13.2121 14.1763 10.3014L19.8608 19.9985C18.7983 21.1005 18.3073 22.2998 18.3073 23.5789C18.3073 24.8177 18.7789 25.9591 19.8608 27.0997L14.0387 36.6206C10.0646 33.6889 7.52748 28.9294 7.52748 23.5ZM21.0803 23.5588C21.0803 22.2218 22.2217 21.1786 23.4806 21.1786C24.8176 21.1786 25.9196 22.2218 25.9196 23.5588C25.9196 24.8764 24.8176 25.9591 23.4806 25.9591C22.2217 25.9591 21.0803 24.8764 21.0803 23.5588ZM23.4999 39.6697C20.8839 39.6697 18.4449 39.0595 16.3005 37.9978L22.0832 28.5357C22.6934 28.6935 23.1071 28.7321 23.4412 28.7321C25.7224 28.7321 27.5327 27.3356 28.4374 24.7984H39.4128C38.7833 33.1577 32.0564 39.6697 23.4999 39.6697Z" fill="#FFF6F6"/>
</svg>
