<svg width="222" height="66" viewBox="0 0 222 66" fill="none" xmlns="http://www.w3.org/2000/svg">
<path d="M44.7057 44.8987C47.0171 42.5615 48.7032 39.2667 49.2785 35M44.7057 44.8987V29.9678C44.7057 28.792 45.2231 27.6757 46.1203 26.9156L49.2785 24.2405M44.7057 44.8987C43.1613 46.4603 41.3377 47.5944 39.3797 48.3052M49.2785 35C50.8234 35 52.0759 33.7475 52.0759 32.2025C52.0759 30.6575 50.8234 29.4051 49.2785 29.4051C47.7335 29.4051 46.481 30.6575 46.481 32.2025C46.481 33.7475 47.7335 35 49.2785 35ZM39.3797 48.3052V24.2405M39.3797 48.3052C37.5902 48.9549 35.6883 49.2509 33.7848 49.1967M39.3797 24.2405L49.9043 17.0395C50.994 16.2939 51.6455 15.0586 51.6455 13.7383V11.9747M39.3797 24.2405V16.9437C39.3797 15.7093 39.9496 14.5441 40.924 13.7863L41.7089 13.1758C42.6832 12.4179 43.2531 11.2527 43.2531 10.0183V7.67088M33.7848 49.1967V6.59493M33.7848 49.1967C32.1709 49.1507 30.5558 48.8528 29.0069 48.3052M33.7848 6.59493C35.3298 6.59493 36.5823 5.34247 36.5823 3.79747C36.5823 2.25247 35.3298 1 33.7848 1C32.2398 1 30.9873 2.25247 30.9873 3.79747C30.9873 5.34247 32.2398 6.59493 33.7848 6.59493ZM29.0069 48.3052V24.2405M29.0069 48.3052C26.9896 47.592 25.0846 46.455 23.4405 44.8987M29.0069 24.2405L18.5206 17.04C17.4341 16.2939 16.7848 15.0605 16.7848 13.7425V11.9747M29.0069 24.2405V16.9957C29.0069 15.7319 28.4097 14.5426 27.3962 13.7877L26.5727 13.1743C25.5592 12.4195 24.962 11.2301 24.962 9.96635V7.67088M18.2911 35C19.0718 39.245 20.9589 42.5496 23.4405 44.8987M23.4405 44.8987V30.1104C23.4405 28.8533 22.8496 27.6694 21.845 26.9138L18.2911 24.2405M54.6582 22.7342C54.6582 24.2792 53.4057 25.5316 51.8607 25.5316C50.3157 25.5316 49.0633 24.2792 49.0633 22.7342C49.0633 21.1892 50.3157 19.9367 51.8607 19.9367C53.4057 19.9367 54.6582 21.1892 54.6582 22.7342ZM54.2278 8.96202C54.2278 10.507 52.9753 11.7595 51.4303 11.7595C49.8853 11.7595 48.6329 10.507 48.6329 8.96202C48.6329 7.41702 49.8853 6.16455 51.4303 6.16455C52.9753 6.16455 54.2278 7.41702 54.2278 8.96202ZM46.0506 4.65823C46.0506 6.20322 44.7981 7.45569 43.2531 7.45569C41.7081 7.45569 40.4557 6.20322 40.4557 4.65823C40.4557 3.11323 41.7081 1.86076 43.2531 1.86076C44.7981 1.86076 46.0506 3.11323 46.0506 4.65823ZM27.5443 4.65823C27.5443 6.20322 26.2918 7.45569 24.7468 7.45569C23.2018 7.45569 21.9493 6.20322 21.9493 4.65823C21.9493 3.11323 23.2018 1.86076 24.7468 1.86076C26.2918 1.86076 27.5443 3.11323 27.5443 4.65823ZM19.3671 8.96202C19.3671 10.507 18.1146 11.7595 16.5696 11.7595C15.0246 11.7595 13.7721 10.507 13.7721 8.96202C13.7721 7.41702 15.0246 6.16455 16.5696 6.16455C18.1146 6.16455 19.3671 7.41702 19.3671 8.96202ZM18.5063 22.7342C18.5063 24.2792 17.2538 25.5316 15.7088 25.5316C14.1638 25.5316 12.9114 24.2792 12.9114 22.7342C12.9114 21.1892 14.1638 19.9367 15.7088 19.9367C17.2538 19.9367 18.5063 21.1892 18.5063 22.7342ZM21.519 32.2025C21.519 33.7475 20.2665 35 18.7215 35C17.1765 35 15.924 33.7475 15.924 32.2025C15.924 30.6575 17.1765 29.4051 18.7215 29.4051C20.2665 29.4051 21.519 30.6575 21.519 32.2025Z" stroke="url(#paint0_linear_54_163)" stroke-width="1.5"/>
<path d="M8.60762 28.1L12.8367 28.0763C12.3292 31.0483 12.4804 34.0955 13.2796 37.0026C14.0788 39.9097 15.5065 42.606 17.4619 44.9009C19.4173 47.1958 22.7134 49.8942 25.4568 51.1448C28.2002 52.3954 31.1847 53.0284 34.1995 52.9992C37.2144 52.97 40.1861 52.2792 42.9047 50.9757C45.6233 49.6722 48.8834 46.9269 50.794 44.5946C52.7045 42.2622 54.0797 39.5388 54.8224 36.6167C55.5651 33.6946 55.6572 30.6451 55.0922 27.6835L59.3924 28.1L68 29.176V34.1254L59.6006 35.2013C59.4657 36.0466 59.2741 36.9319 59.027 37.9042C58.758 38.9627 58.4227 40.0003 58.0242 41.0114L64.3417 46.3912L62.1898 50.284L54.495 47.2519C54.3258 47.4727 54.1529 47.6909 53.9763 47.9064C52.6563 49.5179 51.1503 50.9588 49.4937 52.2013L52.9367 59.3026L49.0633 61.8848L43.6835 55.4814C41.6117 56.3195 39.4415 56.8844 37.2278 57.1633L36.3671 65.1127H31.6329L30.5569 57.1353C28.4191 56.8477 26.3223 56.2929 24.3164 55.4814L19.1519 61.8848L15.0633 59.3026L17.9485 51.7709C16.641 50.7334 15.4334 49.5685 14.3445 48.2905C14.1143 48.0204 13.89 47.7459 13.6717 47.4671L6.2405 50.284L3.65823 46.3912L10.1498 41.4418C9.7378 40.4492 9.3872 39.4294 9.10091 38.388C8.72941 37.0366 8.47812 35.7853 8.34139 34.5557L0 34.1254V28.9608L8.60762 28.1Z" fill="#2563EB"/>
<path d="M90.08 30L81.56 16.62V30H77.69V10.08H82.1L90.02 22.89V10.08H93.92V30H90.08ZM104.715 26.61C105.675 26.61 106.425 26.34 106.965 25.8C107.505 25.26 107.775 24.58 107.775 23.76C107.775 22.88 107.505 22.24 106.965 21.84C106.445 21.44 105.715 21.24 104.775 21.24H99.4346V26.61H104.715ZM99.4346 13.53V17.85H104.685C106.365 17.85 107.205 17.13 107.205 15.69C107.205 14.93 106.985 14.38 106.545 14.04C106.125 13.7 105.425 13.53 104.445 13.53H99.4346ZM95.4146 30V10.08H105.225C107.185 10.08 108.675 10.57 109.695 11.55C110.715 12.51 111.225 13.83 111.225 15.51C111.225 16.37 110.995 17.14 110.535 17.82C110.075 18.48 109.495 18.95 108.795 19.23C109.215 19.39 109.605 19.6 109.965 19.86C110.345 20.1 110.665 20.42 110.925 20.82C111.205 21.2 111.425 21.66 111.585 22.2C111.745 22.72 111.825 23.34 111.825 24.06C111.825 25.88 111.215 27.33 109.995 28.41C108.775 29.47 106.905 30 104.385 30H95.4146ZM130.191 23.16C129.971 24.3 129.621 25.33 129.141 26.25C128.661 27.17 128.051 27.96 127.311 28.62C126.591 29.28 125.751 29.79 124.791 30.15C123.831 30.51 122.771 30.69 121.611 30.69C120.311 30.69 119.091 30.47 117.951 30.03C116.831 29.59 115.861 28.93 115.041 28.05C114.221 27.17 113.571 26.09 113.091 24.81C112.631 23.51 112.401 22 112.401 20.28C112.401 18.6 112.611 17.09 113.031 15.75C113.471 14.39 114.091 13.25 114.891 12.33C115.691 11.39 116.661 10.67 117.801 10.17C118.961 9.67 120.251 9.42 121.671 9.42C122.911 9.42 124.031 9.61 125.031 9.99C126.051 10.35 126.921 10.86 127.641 11.52C128.381 12.16 128.961 12.92 129.381 13.8C129.821 14.68 130.091 15.62 130.191 16.62H126.021C125.741 15.48 125.201 14.6 124.401 13.98C123.601 13.34 122.701 13.02 121.701 13.02C119.961 13.02 118.681 13.65 117.861 14.91C117.041 16.15 116.631 17.86 116.631 20.04C116.631 22.26 117.031 23.99 117.831 25.23C118.651 26.45 119.871 27.06 121.491 27.06C122.731 27.06 123.721 26.73 124.461 26.07C125.221 25.39 125.741 24.42 126.021 23.16H130.191Z" fill="#303030"/>
<path d="M77.69 58V38.08H92.33V41.56H81.74V45.82H91.49V49.33H81.74V54.46H92.81V58H77.69ZM103.197 58V49.06C103.197 47.92 103.007 47.15 102.627 46.75C102.247 46.35 101.597 46.15 100.677 46.15C98.6568 46.15 97.6468 47.28 97.6468 49.54V58H93.7468V43.24H97.4668V45.4C97.9268 44.56 98.5368 43.93 99.2968 43.51C100.057 43.07 101.037 42.85 102.237 42.85C102.937 42.85 103.587 42.96 104.187 43.18C104.787 43.38 105.297 43.69 105.717 44.11C106.157 44.53 106.497 45.05 106.737 45.67C106.997 46.27 107.127 46.97 107.127 47.77V58H103.197ZM115.915 55.06C116.875 55.06 117.665 54.7 118.285 53.98C118.925 53.24 119.245 52.24 119.245 50.98C119.245 47.82 118.135 46.24 115.915 46.24C113.695 46.24 112.585 47.74 112.585 50.74C112.585 52.06 112.895 53.11 113.515 53.89C114.155 54.67 114.955 55.06 115.915 55.06ZM119.125 56.02C118.845 56.68 118.335 57.2 117.595 57.58C116.875 57.94 116.035 58.12 115.075 58.12C113.855 58.12 112.825 57.91 111.985 57.49C111.165 57.05 110.495 56.48 109.975 55.78C109.475 55.08 109.105 54.27 108.865 53.35C108.645 52.43 108.535 51.49 108.535 50.53C108.535 49.39 108.705 48.35 109.045 47.41C109.385 46.45 109.845 45.64 110.425 44.98C111.005 44.3 111.685 43.78 112.465 43.42C113.245 43.04 114.085 42.85 114.985 42.85C116.825 42.85 118.205 43.59 119.125 45.07V43.24H123.025V58.15C123.025 59.27 122.835 60.25 122.455 61.09C122.075 61.95 121.555 62.66 120.895 63.22C120.235 63.8 119.455 64.24 118.555 64.54C117.655 64.84 116.695 64.99 115.675 64.99C114.655 64.99 113.705 64.84 112.825 64.54C111.945 64.26 111.185 63.85 110.545 63.31C109.925 62.79 109.435 62.15 109.075 61.39C108.715 60.63 108.535 59.77 108.535 58.81H112.165C112.165 59.71 112.455 60.4 113.035 60.88C113.635 61.38 114.425 61.63 115.405 61.63C116.445 61.63 117.325 61.34 118.045 60.76C118.765 60.2 119.125 59.43 119.125 58.45V56.02ZM124.833 58V43.24H128.733V58H124.833ZM124.833 41.47V37.84H128.733V41.47H124.833ZM139.964 58V49.06C139.964 47.92 139.774 47.15 139.394 46.75C139.014 46.35 138.364 46.15 137.444 46.15C135.424 46.15 134.414 47.28 134.414 49.54V58H130.514V43.24H134.234V45.4C134.694 44.56 135.304 43.93 136.064 43.51C136.824 43.07 137.804 42.85 139.004 42.85C139.704 42.85 140.354 42.96 140.954 43.18C141.554 43.38 142.064 43.69 142.484 44.11C142.924 44.53 143.264 45.05 143.504 45.67C143.764 46.27 143.894 46.97 143.894 47.77V58H139.964ZM155.322 49.18C155.302 48.64 155.202 48.17 155.022 47.77C154.862 47.35 154.642 47.01 154.362 46.75C154.082 46.47 153.762 46.27 153.402 46.15C153.042 46.01 152.672 45.94 152.292 45.94C151.512 45.94 150.832 46.23 150.252 46.81C149.692 47.37 149.372 48.16 149.292 49.18H155.322ZM149.172 51.64C149.232 52.76 149.552 53.65 150.132 54.31C150.732 54.97 151.512 55.3 152.472 55.3C153.112 55.3 153.672 55.16 154.152 54.88C154.652 54.58 154.972 54.17 155.112 53.65H159.132C158.672 55.17 157.872 56.34 156.732 57.16C155.592 57.98 154.232 58.39 152.652 58.39C147.732 58.39 145.272 55.71 145.272 50.35C145.272 49.21 145.432 48.18 145.752 47.26C146.072 46.34 146.532 45.55 147.132 44.89C147.752 44.23 148.502 43.73 149.382 43.39C150.262 43.03 151.272 42.85 152.412 42.85C154.692 42.85 156.412 43.58 157.572 45.04C158.752 46.5 159.342 48.7 159.342 51.64H149.172ZM170.41 49.18C170.39 48.64 170.29 48.17 170.11 47.77C169.95 47.35 169.73 47.01 169.45 46.75C169.17 46.47 168.85 46.27 168.49 46.15C168.13 46.01 167.76 45.94 167.38 45.94C166.6 45.94 165.92 46.23 165.34 46.81C164.78 47.37 164.46 48.16 164.38 49.18H170.41ZM164.26 51.64C164.32 52.76 164.64 53.65 165.22 54.31C165.82 54.97 166.6 55.3 167.56 55.3C168.2 55.3 168.76 55.16 169.24 54.88C169.74 54.58 170.06 54.17 170.2 53.65H174.22C173.76 55.17 172.96 56.34 171.82 57.16C170.68 57.98 169.32 58.39 167.74 58.39C162.82 58.39 160.36 55.71 160.36 50.35C160.36 49.21 160.52 48.18 160.84 47.26C161.16 46.34 161.62 45.55 162.22 44.89C162.84 44.23 163.59 43.73 164.47 43.39C165.35 43.03 166.36 42.85 167.5 42.85C169.78 42.85 171.5 43.58 172.66 45.04C173.84 46.5 174.43 48.7 174.43 51.64H164.26ZM175.778 58V43.24H179.438V45.01C179.758 44.51 180.088 44.12 180.428 43.84C180.788 43.56 181.148 43.35 181.508 43.21C181.888 43.05 182.268 42.95 182.648 42.91C183.028 42.87 183.418 42.85 183.818 42.85H184.328V46.84C183.968 46.78 183.608 46.75 183.248 46.75C180.868 46.75 179.678 47.94 179.678 50.32V58H175.778ZM185.507 58V43.24H189.407V58H185.507ZM185.507 41.47V37.84H189.407V41.47H185.507ZM200.638 58V49.06C200.638 47.92 200.448 47.15 200.068 46.75C199.688 46.35 199.038 46.15 198.118 46.15C196.098 46.15 195.088 47.28 195.088 49.54V58H191.188V43.24H194.908V45.4C195.368 44.56 195.978 43.93 196.738 43.51C197.498 43.07 198.478 42.85 199.678 42.85C200.378 42.85 201.028 42.96 201.628 43.18C202.228 43.38 202.738 43.69 203.158 44.11C203.598 44.53 203.938 45.05 204.178 45.67C204.438 46.27 204.568 46.97 204.568 47.77V58H200.638ZM213.356 55.06C214.316 55.06 215.106 54.7 215.726 53.98C216.366 53.24 216.686 52.24 216.686 50.98C216.686 47.82 215.576 46.24 213.356 46.24C211.136 46.24 210.026 47.74 210.026 50.74C210.026 52.06 210.336 53.11 210.956 53.89C211.596 54.67 212.396 55.06 213.356 55.06ZM216.566 56.02C216.286 56.68 215.776 57.2 215.036 57.58C214.316 57.94 213.476 58.12 212.516 58.12C211.296 58.12 210.266 57.91 209.426 57.49C208.606 57.05 207.936 56.48 207.416 55.78C206.916 55.08 206.546 54.27 206.306 53.35C206.086 52.43 205.976 51.49 205.976 50.53C205.976 49.39 206.146 48.35 206.486 47.41C206.826 46.45 207.286 45.64 207.866 44.98C208.446 44.3 209.126 43.78 209.906 43.42C210.686 43.04 211.526 42.85 212.426 42.85C214.266 42.85 215.646 43.59 216.566 45.07V43.24H220.466V58.15C220.466 59.27 220.276 60.25 219.896 61.09C219.516 61.95 218.996 62.66 218.336 63.22C217.676 63.8 216.896 64.24 215.996 64.54C215.096 64.84 214.136 64.99 213.116 64.99C212.096 64.99 211.146 64.84 210.266 64.54C209.386 64.26 208.626 63.85 207.986 63.31C207.366 62.79 206.876 62.15 206.516 61.39C206.156 60.63 205.976 59.77 205.976 58.81H209.606C209.606 59.71 209.896 60.4 210.476 60.88C211.076 61.38 211.866 61.63 212.846 61.63C213.886 61.63 214.766 61.34 215.486 60.76C216.206 60.2 216.566 59.43 216.566 58.45V56.02Z" fill="#303030"/>
<defs>
<linearGradient id="paint0_linear_54_163" x1="34" y1="17" x2="33.7848" y2="49.203" gradientUnits="userSpaceOnUse">
<stop stop-color="#00C1FC"/>
<stop offset="1" stop-color="#2563EB"/>
</linearGradient>
</defs>
</svg>
